<svg enable-background="new 0 0 288 223" viewBox="0 0 288 223" xmlns="http://www.w3.org/2000/svg"><path d="m204 107.3c6.8-3.7 12-11.4 12-20.7 0-14.2-12.2-25.6-27.7-25.6h-41.2v105.7h42.6c22.5 0 33.1-15.1 33.1-30.9 0-13-4.5-22.3-18.8-28.5zm-34.6-30.7 21.6 12.5-21.6 12.5zm10.8 83.3c-1.4 0-2.5-1.1-2.5-2.5s1.1-2.5 2.5-2.5 2.5 1.1 2.5 2.5-1.1 2.5-2.5 2.5zm16.9-11.5c0 2.2-1.8 4-4 4h-25.9c-2.2 0-4-1.8-4-4v-30.9c0-2.2 1.8-4 4-4h25.9c2.2 0 4 1.8 4 4z" fill="#522a44"/><path d="m97.8 60.9c-15.6 0-28.1 11.4-28.1 25.6 0 9.3 5.2 17.1 12.1 20.7-14.5 6.2-19 15.5-19.1 28.4 0 15.8 10.7 30.9 33.5 30.9l43.1.1.2-105.6zm-10.1 15.8 2.2 4.5c2.5 1 5-.3 5.7-2.9l-2.1-4.2c1.2.2 2.4.8 3.4 1.7 1.7 1.7 2.2 4 1.5 6.1l5.2 5.2 8.4-8.4c.1-.9.6-1.8 1.3-2.5 1.6-1.5 3.9-1.5 5.6-.3l-3.3 1.5c-.8 1.7.1 3.6 1.9 4.2l3.1-1.4c-.2.9-.6 1.7-1.3 2.4-1.1 1.1-2.7 1.4-4.1 1l-7.6 7.6 8.4 8.4c.9.1 1.8.6 2.5 1.3 1.5 1.6 1.5 3.9.3 5.6l-1.5-3.3c-1.7-.8-3.6.1-4.2 1.9l1.4 3.1c-.9-.2-1.7-.6-2.4-1.3-1.1-1.1-1.4-2.7-1-4.1l-7.6-7.6-5.2 5.2c.6 2.1.1 4.4-1.5 6.1-2.1 2.1-5.4 2.3-7.8.7l4.5-2.2c1-2.5-.3-5-2.9-5.7l-4.2 2.1c.2-1.2.8-2.4 1.7-3.4 1.7-1.7 4-2.2 6.1-1.5l5.2-5.2-5.2-5.2c-2.1.6-4.4.1-6.1-1.5-1.8-2.3-2-5.6-.4-7.9zm39.1 61.7c0 .1-.1.3-.2.3l-4.4.7c-.6.1-1 .5-1.1 1-.4 1.5-1 3-1.8 4.4-.3.5-.3 1.1.1 1.5l2.6 3.6c.1.1.1.3 0 .4l-3.1 3.1c-.1.1-.1.1-.2.1s-.1 0-.2-.1l-3.6-2.6c-.4-.3-1.1-.3-1.5-.1-1.4.8-2.8 1.4-4.4 1.8-.5.1-1 .6-1 1.1l-.7 4.4c0 .1-.1.2-.3.2h-4.4c-.1 0-.3-.1-.3-.2l-.7-4.4c-.1-.6-.5-1-1-1.1-1.5-.4-2.9-1-4.3-1.8-.2-.1-.5-.2-.7-.2-.3 0-.6.1-.8.3l-3.7 2.6c-.1 0-.1.1-.2.1 0 0-.1 0-.2-.1l-3.1-3.1c-.1-.1-.1-.2 0-.4l2.6-3.6c.3-.5.3-1.1.1-1.5-.8-1.4-1.4-2.8-1.8-4.4-.1-.5-.6-.9-1.1-1l-4.4-.8c-.1 0-.2-.1-.2-.3v-4.4c0-.1.1-.3.2-.3l4.4-.7c.6-.1 1-.5 1.1-1 .4-1.5 1-3 1.8-4.4.3-.5.3-1.1-.1-1.5l-2.6-3.7c-.1-.1-.1-.3 0-.4l3.1-3.1c.1-.1.1-.1.2-.1s.1 0 .2.1l3.6 2.6c.5.3 1.1.3 1.5.1 1.4-.8 2.8-1.4 4.4-1.8.5-.1.9-.6 1-1.1l.8-4.4c0-.1.1-.2.3-.2h4.4c.1 0 .3.1.3.2l.7 4.4c.1.6.5 1 1 1.1 1.6.4 3.1 1 4.5 1.8.5.3 1.1.3 1.5-.1l3.6-2.6c.1 0 .1-.1.2-.1 0 0 .1 0 .2.1l3.1 3.1c.1.1.1.2 0 .4l-2.6 3.6c-.3.4-.3 1.1-.1 1.5.8 1.4 1.4 2.8 1.8 4.4.1.5.6 1 1.1 1l4.4.7c.1 0 .2.1.2.3v4.6z" fill="#522a44"/><g fill="#006068"><path d="m185.9 61.8-15.8-6.6c-1-.4-2.2-.7-3.3-.7l-9.5-.1c1.4 1.2 1.9 4.1.5 6l-4.8 6.6-2.7 3.8 4.6-3.6c2.4-1.8 5.7-2.8 9-2.7l20.6.8c2.6.1 3.7-2.6 1.4-3.5z"/><path d="m138.6 73.6v93.2h9.7v-93.2h-1.4-6.9z"/><path d="m130.1 60.7c-1.4-1.2-1.4-2.8-.8-4-5.2.1-10.1-.6-14.5-2.9-3.5 5.3-3.5 10.7 0 16 7.1-2.7 14.1-2.7 21.2 0-.1-1.2-.3-2.3-.8-3.3-1.1-2.3-3-4.1-5.1-5.8z"/><path d="m114.8 53.1h-12.6v17h12.6v-.3-16z"/><path d="m157.7 60.4c1.4-1.9.9-4.7-.5-6-.5-.4-1-.6-1.6-.6h-2.6-9.5-9.5-2.6c-1 0-1.8.6-2.3 1.5-.8 1.4-.9 3.6.2 5.1l4.8 6.6 2 2.8 1.9 2.6c.6.8 1.3 1.2 2.1 1.2h7c.8 0 1.6-.4 2.1-1.2l1.2-1.6 2.6-3.8z"/></g></svg>